<svg xmlns="http://www.w3.org/2000/svg" xmlns:v="https://svgstorm.com"
viewBox = "0 0 508 491"
width="508"
height="491">
<g fill="None" fill-opacity="0.0" stroke="#000000" stroke-opacity="0.00" stroke-width="0.3"><path d="
M 0.00 186.00 
C 0.34 185.84 0.80 185.32 1.00 185.00
C 2.75 182.17 5.58 180.07 8.00 178.00
C 9.94 176.34 12.11 174.62 14.00 173.00
C 16.99 170.01 19.74 166.68 23.00 164.00
C 24.26 162.97 25.79 161.99 27.00 161.00
C 29.70 158.40 32.11 155.37 35.00 153.00
C 36.26 151.97 37.79 150.99 39.00 150.00
C 41.35 147.74 43.53 145.11 46.00 143.00
C 47.94 141.34 50.11 139.62 52.00 138.00
C 54.33 135.67 56.51 133.12 59.00 131.00
C 68.71 122.70 76.20 114.20 86.75 106.75 C 97.29 99.29 102.57 87.40 109.00 79.00
C 113.47 73.17 119.49 67.71 125.00 63.00
C 138.17 51.74 151.74 46.75 167.69 41.69 C 183.65 36.64 197.03 28.67 213.00 24.00
C 214.14 23.52 215.65 22.54 217.00 22.00
C 243.48 11.43 268.50 1.00 299.00 1.00
C 298.93 0.99 299.00 0.00 299.00 0.00
L 0.00 0.00
L 0.00 186.00 Z"/>
</g>
<g fill="None" fill-opacity="0.0" stroke="#989898" stroke-opacity="0.11" stroke-width="0.3"><path d="
M 299.00 1.00 
C 301.33 1.00 303.67 1.00 306.00 1.00
C 306.07 0.99 306.00 0.00 306.00 0.00
L 299.00 0.00
C 299.00 0.00 298.93 0.99 299.00 1.00 Z"/>
</g>
<g fill="None" fill-opacity="0.0" stroke="#636265" stroke-opacity="0.55" stroke-width="0.3"><path d="
M 306.00 1.00 
C 311.26 1.00 316.76 1.47 322.00 1.00
C 321.93 0.99 322.00 0.00 322.00 0.00
L 306.00 0.00
C 306.00 0.00 306.07 0.99 306.00 1.00 Z"/>
</g>
<g fill="None" fill-opacity="0.0" stroke="#000000" stroke-opacity="0.00" stroke-width="0.3"><path d="
M 322.00 1.00 
C 330.08 2.10 336.44 8.42 339.00 16.00
C 340.11 19.29 339.70 21.83 339.00 25.00
C 336.04 38.37 324.81 51.96 317.70 64.70 C 310.58 77.43 303.16 89.82 295.00 103.00
C 294.09 104.47 292.83 105.76 292.00 107.00
C 286.79 116.66 280.66 124.59 271.25 131.25 C 261.84 137.91 251.25 144.47 259.25 153.75 C 267.25 163.03 271.70 169.18 279.00 179.00
C 283.03 183.62 290.24 188.37 293.00 194.00
C 293.20 194.40 293.00 195.00 293.00 195.00
C 296.56 197.49 306.25 205.85 306.00 209.00
C 306.27 209.21 306.65 209.87 307.00 210.00
C 311.09 211.57 314.51 217.51 318.00 221.00
C 323.62 226.62 329.85 231.97 335.00 238.00
C 336.35 239.58 337.69 241.47 339.00 243.00
C 343.27 247.27 347.85 251.68 352.00 256.00
C 353.81 257.61 354.67 259.35 356.00 261.00
C 358.87 264.04 362.29 266.83 365.00 270.00
C 398.34 309.01 430.97 349.18 465.00 389.00
C 473.25 397.25 481.80 405.80 490.00 414.00
C 491.58 415.35 493.47 416.69 495.00 418.00
C 498.75 421.21 503.34 424.84 506.00 429.00
C 506.67 430.05 506.75 431.55 508.00 432.00
L 508.00 0.00
L 322.00 0.00
C 322.00 0.00 321.93 0.99 322.00 1.00 Z"/>
</g>
<g fill="None" fill-opacity="0.0" stroke="#050405" stroke-opacity="0.97" stroke-width="0.3"><path d="
M 217.00 22.00 
C 215.59 22.77 214.75 23.49 213.00 24.00
C 197.03 28.67 183.65 36.64 167.69 41.69 C 151.74 46.75 138.17 51.74 125.00 63.00
C 119.83 68.17 113.83 73.65 109.00 79.00
C 102.57 87.40 97.29 99.29 86.75 106.75 C 76.20 114.20 68.71 122.70 59.00 131.00
C 56.67 133.33 54.49 135.88 52.00 138.00
C 50.11 139.62 47.94 141.34 46.00 143.00
C 43.66 145.34 41.55 147.91 39.00 150.00
C 37.79 150.99 36.26 151.97 35.00 153.00
C 32.30 155.60 29.89 158.63 27.00 161.00
C 25.79 161.99 24.26 162.97 23.00 164.00
C 19.98 166.91 17.18 170.28 14.00 173.00
C 12.11 174.62 9.94 176.34 8.00 178.00
C 5.65 180.35 3.62 182.96 1.00 185.00
C 0.80 185.32 0.34 185.84 0.00 186.00
L 0.00 190.00
C 8.59 203.17 17.76 216.04 29.75 229.25 C 41.75 242.46 52.89 256.01 72.02 258.98 C 91.16 261.94 110.38 272.20 127.00 258.00
C 129.99 255.01 132.81 251.73 136.00 249.00
C 137.94 247.34 140.11 245.62 142.00 244.00
C 144.33 241.67 146.51 239.12 149.00 237.00
C 154.26 232.51 159.41 227.97 164.00 223.00
C 166.30 220.51 169.03 217.81 172.00 216.00
C 172.64 215.61 173.39 215.37 174.00 215.00
C 176.41 212.75 178.28 209.94 181.00 208.00
C 184.24 205.68 188.33 202.26 191.10 200.10 C 193.87 197.94 199.62 204.33 202.00 206.00
C 210.66 212.06 220.74 222.58 227.00 231.00
C 255.84 269.79 284.72 305.40 316.00 342.00
C 318.35 344.35 320.99 346.35 323.00 349.00
C 327.56 355.01 333.80 360.91 339.00 367.00
C 344.62 372.62 350.85 377.97 356.00 384.00
C 359.19 387.73 362.79 391.89 366.00 395.00
C 368.65 397.57 371.44 400.44 374.00 403.00
C 376.33 405.33 378.88 407.51 381.00 410.00
C 384.18 413.73 387.86 417.33 391.00 421.00
C 394.00 424.00 397.44 426.62 400.00 430.00
C 416.49 451.74 431.80 473.47 450.00 491.00
L 461.00 491.00
C 467.23 488.65 473.50 485.34 479.00 481.00
C 482.65 477.63 486.52 473.48 490.00 470.00
C 497.56 461.15 504.34 451.59 508.00 441.00
L 508.00 432.00
C 506.75 431.55 506.67 430.05 506.00 429.00
C 503.14 425.33 498.30 421.30 495.00 418.00
C 493.47 416.69 491.58 415.35 490.00 414.00
C 481.23 406.51 472.45 397.72 465.00 389.00
C 430.97 349.18 398.34 309.01 365.00 270.00
C 362.00 267.00 358.65 264.29 356.00 261.00
C 354.67 259.35 353.81 257.61 352.00 256.00
C 347.44 251.94 342.93 247.60 339.00 243.00
C 337.69 241.47 336.35 239.58 335.00 238.00
C 329.41 232.41 323.54 226.54 318.00 221.00
C 314.35 217.35 310.17 214.07 307.00 210.00
C 306.65 209.87 306.27 209.21 306.00 209.00
C 301.99 205.88 295.26 199.63 293.00 195.00
C 293.00 195.00 293.20 194.40 293.00 194.00
C 287.44 190.11 282.91 184.26 279.00 179.00
C 271.70 169.18 267.25 163.03 259.25 153.75 C 251.25 144.47 261.84 137.91 271.25 131.25 C 280.66 124.59 286.79 116.66 292.00 107.00
C 292.92 105.30 293.96 104.36 295.00 103.00
C 303.16 89.82 310.58 77.43 317.70 64.70 C 324.81 51.96 336.04 38.37 339.00 25.00
C 339.27 22.39 339.50 18.57 339.00 16.00
C 336.44 8.42 330.08 2.10 322.00 1.00
C 316.76 1.47 311.26 1.00 306.00 1.00
C 303.67 1.00 301.33 1.00 299.00 1.00
C 268.50 1.00 243.48 11.43 217.00 22.00
M 300.00 8.00 
C 259.69 20.41 221.79 46.99 178.00 43.00
C 217.58 29.23 257.11 6.92 300.00 8.00
M 117.00 255.00 
C 96.32 234.00 77.50 210.84 63.00 186.00
C 74.70 176.31 85.48 166.10 96.75 155.75 C 108.03 145.40 120.70 136.56 131.75 125.75 C 142.79 114.94 154.99 106.76 166.23 96.23 C 177.47 85.70 189.84 76.55 201.25 66.25 C 212.66 55.95 225.76 44.88 239.69 39.69 C 253.63 34.51 272.35 25.95 285.02 21.02 C 297.69 16.10 322.86 0.38 329.97 17.03 C 337.09 33.67 315.16 46.47 311.23 61.23 C 307.29 75.99 292.41 86.37 287.25 101.25 C 282.08 116.12 266.06 123.76 254.77 133.77 C 243.48 143.78 231.70 154.29 220.25 164.25 C 208.80 174.21 197.30 183.78 185.92 193.92 C 174.54 204.05 163.52 215.20 151.75 224.75 C 139.98 234.30 128.24 245.05 117.00 255.00
M 211.00 47.00 
C 199.87 58.85 187.09 68.02 175.25 79.25 C 163.40 90.47 151.78 100.75 139.25 111.25 C 126.73 121.75 115.59 131.97 102.75 142.75 C 89.91 153.54 79.69 162.90 66.75 174.75 C 53.82 186.60 28.30 187.41 11.00 183.00
C 40.26 155.40 72.10 130.09 101.00 102.00
C 113.89 123.35 137.02 109.10 149.75 96.75 C 162.49 84.41 185.39 65.98 165.00 51.00
C 179.42 47.69 195.38 46.89 211.00 47.00
M 158.00 52.00 
C 150.28 73.55 128.16 92.85 106.00 98.00
C 112.87 76.08 135.99 56.93 158.00 52.00
M 111.00 103.00 
C 132.05 95.51 153.65 78.52 162.00 57.00
C 170.21 59.81 166.60 70.90 162.01 75.01 C 157.42 79.12 153.69 86.35 148.75 90.75 C 143.82 95.15 135.33 97.32 129.78 100.78 C 124.23 104.23 115.89 111.79 111.00 103.00
M 464.00 439.00 
C 462.42 438.10 462.25 438.10 462.00 440.00
C 466.52 449.88 484.39 464.83 473.00 473.00
C 455.90 458.10 441.70 441.57 430.00 423.00
C 427.08 432.63 436.80 436.45 441.75 444.25 C 446.70 452.05 449.00 457.38 457.75 464.25 C 466.50 471.12 458.70 488.22 449.75 480.25 C 440.81 472.27 440.07 467.69 434.25 459.75 C 428.42 451.82 425.45 446.54 419.25 439.75 C 413.05 432.96 409.07 426.51 402.75 420.25 C 396.44 413.99 390.75 408.47 384.75 402.25 C 378.75 396.03 373.90 389.46 367.25 383.75 C 360.60 378.04 356.12 371.07 349.75 365.25 C 343.38 359.43 338.66 353.36 332.75 347.25 C 326.84 341.14 321.35 334.62 315.75 328.25 C 310.15 321.89 304.64 315.29 299.25 308.75 C 293.85 302.22 288.73 295.24 283.25 288.75 C 277.76 282.27 274.33 274.87 268.25 268.75 C 262.17 262.63 258.17 254.78 252.75 248.25 C 247.33 241.73 241.97 235.00 236.23 228.77 C 230.49 222.54 225.00 216.03 218.75 210.25 C 212.50 204.47 206.20 198.86 200.00 193.00
C 214.08 177.65 230.13 163.94 247.00 153.00
C 252.69 160.36 258.57 167.43 264.25 174.75 C 269.93 182.07 276.83 189.11 282.75 196.25 C 288.68 203.38 296.44 208.57 302.25 215.75 C 308.05 222.93 315.20 229.50 321.75 236.25 C 328.30 242.99 334.58 250.08 341.25 256.75 C 347.92 263.43 353.27 270.42 359.75 277.25 C 366.24 284.08 371.86 291.81 378.30 298.70 C 384.75 305.59 389.93 312.72 396.30 319.70 C 402.67 326.67 407.60 335.06 413.92 342.08 C 420.23 349.11 426.29 356.55 432.25 363.75 C 438.21 370.94 443.53 378.21 449.92 385.08 C 456.31 391.95 461.73 399.64 469.25 405.75 C 476.77 411.86 480.05 420.21 489.25 424.75 C 498.44 429.30 501.27 447.55 491.25 438.75 C 481.22 429.95 478.24 427.90 467.00 423.00
C 470.98 431.01 480.15 431.95 486.25 438.75 C 492.34 445.56 490.76 462.55 480.92 457.08 C 471.09 451.61 470.69 446.61 464.00 439.00
M 70.00 207.00 
C 72.53 209.96 74.69 213.02 77.00 216.00
C 81.65 222.00 87.20 227.91 92.00 234.00
C 95.02 237.83 97.30 242.30 100.00 246.00
C 102.70 249.71 106.69 253.38 108.00 258.00
C 93.90 257.03 80.37 253.85 67.00 250.00
C 60.41 247.80 54.35 244.53 49.00 240.00
C 57.93 238.84 67.81 240.15 77.00 237.00
C 77.57 236.48 77.68 233.78 78.00 233.00
C 62.99 238.01 39.23 237.99 32.00 221.00
C 44.17 218.61 57.34 216.45 70.00 219.00
C 64.73 215.28 56.91 214.14 50.00 214.00
C 47.34 213.95 44.66 214.00 42.00 214.00
C 37.38 214.00 29.22 216.43 26.00 215.00
C 17.79 211.35 15.45 197.54 9.00 192.00
C 20.87 190.29 34.94 190.28 47.00 190.00 C 59.06 189.72 62.21 199.83 70.00 207.00 Z"/>
</g>
<g fill="None" fill-opacity="0.0" stroke="#333549" stroke-opacity="1.00" stroke-width="0.3"><path d="
M 300.00 8.00 
C 257.11 6.92 217.58 29.23 178.00 43.00
C 221.79 46.99 259.69 20.41 300.00 8.00 Z"/>
</g>
<g fill="None" fill-opacity="0.0" stroke="#34364D" stroke-opacity="1.00" stroke-width="0.3"><path d="
M 117.00 255.00 
C 128.24 245.05 139.98 234.30 151.75 224.75 C 163.52 215.20 174.54 204.05 185.92 193.92 C 197.30 183.78 208.80 174.21 220.25 164.25 C 231.70 154.29 243.48 143.78 254.77 133.77 C 266.06 123.76 282.08 116.12 287.25 101.25 C 292.41 86.37 307.29 75.99 311.23 61.23 C 315.16 46.47 337.09 33.67 329.97 17.03 C 322.86 0.38 297.69 16.10 285.02 21.02 C 272.35 25.95 253.63 34.51 239.69 39.69 C 225.76 44.88 212.66 55.95 201.25 66.25 C 189.84 76.55 177.47 85.70 166.23 96.23 C 154.99 106.76 142.79 114.94 131.75 125.75 C 120.70 136.56 108.03 145.40 96.75 155.75 C 85.48 166.10 74.70 176.31 63.00 186.00
C 77.50 210.84 96.32 234.00 117.00 255.00 Z"/>
</g>
<g fill="None" fill-opacity="0.0" stroke="#868686" stroke-opacity="0.30" stroke-width="0.3"><path d="
M 339.00 25.00 
C 339.70 21.83 340.11 19.29 339.00 16.00
C 339.50 18.57 339.27 22.39 339.00 25.00 Z"/>
</g>
<g fill="None" fill-opacity="0.0" stroke="#919192" stroke-opacity="0.28" stroke-width="0.3"><path d="
M 213.00 24.00 
C 214.75 23.49 215.59 22.77 217.00 22.00
C 215.65 22.54 214.14 23.52 213.00 24.00 Z"/>
</g>
<g fill="None" fill-opacity="0.0" stroke="#34354B" stroke-opacity="1.00" stroke-width="0.3"><path d="
M 211.00 47.00 
C 195.38 46.89 179.42 47.69 165.00 51.00
C 185.39 65.98 162.49 84.41 149.75 96.75 C 137.02 109.10 113.89 123.35 101.00 102.00
C 72.10 130.09 40.26 155.40 11.00 183.00
C 28.30 187.41 53.82 186.60 66.75 174.75 C 79.69 162.90 89.91 153.54 102.75 142.75 C 115.59 131.97 126.73 121.75 139.25 111.25 C 151.78 100.75 163.40 90.47 175.25 79.25 C 187.09 68.02 199.87 58.85 211.00 47.00 Z"/>
</g>
<g fill="None" fill-opacity="0.0" stroke="#6D320E" stroke-opacity="1.00" stroke-width="0.3"><path d="
M 158.00 52.00 
C 135.99 56.93 112.87 76.08 106.00 98.00
C 128.16 92.85 150.28 73.55 158.00 52.00
M 149.00 61.00 
C 142.24 73.06 127.72 88.79 115.00 88.00
C 120.44 76.44 133.17 69.36 142.00 61.00
C 144.32 62.57 146.18 63.25 149.00 61.00 Z"/>
</g>
<g fill="None" fill-opacity="0.0" stroke="#73330B" stroke-opacity="1.00" stroke-width="0.3"><path d="
M 111.00 103.00 
C 115.89 111.79 124.23 104.23 129.78 100.78 C 135.33 97.32 143.82 95.15 148.75 90.75 C 153.69 86.35 157.42 79.12 162.01 75.01 C 166.60 70.90 170.21 59.81 162.00 57.00
C 153.65 78.52 132.05 95.51 111.00 103.00 Z"/>
</g>
<g fill="None" fill-opacity="0.0" stroke="#080201" stroke-opacity="1.00" stroke-width="0.3"><path d="
M 149.00 61.00 
C 146.18 63.25 144.32 62.57 142.00 61.00
C 133.17 69.36 120.44 76.44 115.00 88.00
C 127.72 88.79 142.24 73.06 149.00 61.00 Z"/>
</g>
<g fill="None" fill-opacity="0.0" stroke="#777779" stroke-opacity="0.33" stroke-width="0.3"><path d="
M 109.00 79.00 
C 113.83 73.65 119.83 68.17 125.00 63.00
C 119.49 67.71 113.47 73.17 109.00 79.00 Z"/>
</g>
<g fill="None" fill-opacity="0.0" stroke="#878787" stroke-opacity="0.28" stroke-width="0.3"><path d="
M 292.00 107.00 
C 292.83 105.76 294.09 104.47 295.00 103.00
C 293.96 104.36 292.92 105.30 292.00 107.00 Z"/>
</g>
<g fill="None" fill-opacity="0.0" stroke="#979796" stroke-opacity="0.20" stroke-width="0.3"><path d="
M 52.00 138.00 
C 54.49 135.88 56.67 133.33 59.00 131.00
C 56.51 133.12 54.33 135.67 52.00 138.00 Z"/>
</g>
<g fill="None" fill-opacity="0.0" stroke="#949493" stroke-opacity="0.27" stroke-width="0.3"><path d="
M 39.00 150.00 
C 41.55 147.91 43.66 145.34 46.00 143.00
C 43.53 145.11 41.35 147.74 39.00 150.00 Z"/>
</g>
<g fill="None" fill-opacity="0.0" stroke="#7B7B7D" stroke-opacity="0.36" stroke-width="0.3"><path d="
M 27.00 161.00 
C 29.89 158.63 32.30 155.60 35.00 153.00
C 32.11 155.37 29.70 158.40 27.00 161.00 Z"/>
</g>
<g fill="None" fill-opacity="0.0" stroke="#7E3505" stroke-opacity="1.00" stroke-width="0.3"><path d="
M 462.00 440.00 
C 454.72 424.07 445.81 409.64 431.00 399.00
C 449.05 404.31 458.27 422.51 464.00 439.00
C 470.69 446.61 471.09 451.61 480.92 457.08 C 490.76 462.55 492.34 445.56 486.25 438.75 C 480.15 431.95 470.98 431.01 467.00 423.00
C 478.24 427.90 481.22 429.95 491.25 438.75 C 501.27 447.55 498.44 429.30 489.25 424.75 C 480.05 420.21 476.77 411.86 469.25 405.75 C 461.73 399.64 456.31 391.95 449.92 385.08 C 443.53 378.21 438.21 370.94 432.25 363.75 C 426.29 356.55 420.23 349.11 413.92 342.08 C 407.60 335.06 402.67 326.67 396.30 319.70 C 389.93 312.72 384.75 305.59 378.30 298.70 C 371.86 291.81 366.24 284.08 359.75 277.25 C 353.27 270.42 347.92 263.43 341.25 256.75 C 334.58 250.08 328.30 242.99 321.75 236.25 C 315.20 229.50 308.05 222.93 302.25 215.75 C 296.44 208.57 288.68 203.38 282.75 196.25 C 276.83 189.11 269.93 182.07 264.25 174.75 C 258.57 167.43 252.69 160.36 247.00 153.00
C 230.13 163.94 214.08 177.65 200.00 193.00
C 206.20 198.86 212.50 204.47 218.75 210.25 C 225.00 216.03 230.49 222.54 236.23 228.77 C 241.97 235.00 247.33 241.73 252.75 248.25 C 258.17 254.78 262.17 262.63 268.25 268.75 C 274.33 274.87 277.76 282.27 283.25 288.75 C 288.73 295.24 293.85 302.22 299.25 308.75 C 304.64 315.29 310.15 321.89 315.75 328.25 C 321.35 334.62 326.84 341.14 332.75 347.25 C 338.66 353.36 343.38 359.43 349.75 365.25 C 356.12 371.07 360.60 378.04 367.25 383.75 C 373.90 389.46 378.75 396.03 384.75 402.25 C 390.75 408.47 396.44 413.99 402.75 420.25 C 409.07 426.51 413.05 432.96 419.25 439.75 C 425.45 446.54 428.42 451.82 434.25 459.75 C 440.07 467.69 440.81 472.27 449.75 480.25 C 458.70 488.22 466.50 471.12 457.75 464.25 C 449.00 457.38 446.70 452.05 441.75 444.25 C 436.80 436.45 427.08 432.63 430.00 423.00
C 441.70 441.57 455.90 458.10 473.00 473.00
C 484.39 464.83 466.52 449.88 462.00 440.00
M 321.00 244.00 
C 301.66 240.85 289.90 223.26 275.25 211.75 C 260.60 200.24 242.69 187.27 240.00 168.00
C 245.43 177.49 252.60 189.94 262.75 197.25 C 272.89 204.57 283.30 210.58 291.75 220.25 C 300.21 229.92 310.33 237.61 321.00 244.00
M 293.00 286.00 
C 269.16 253.55 244.61 216.76 213.00 190.00
C 232.22 199.40 246.61 215.76 256.75 234.25 C 266.90 252.73 288.08 264.75 293.00 286.00
M 289.00 244.00 
C 294.64 275.47 332.69 284.62 345.00 312.00
C 338.30 305.63 330.28 298.65 323.25 291.75 C 316.22 284.85 306.52 278.87 300.70 271.30 C 294.87 263.73 284.17 252.15 289.00 244.00
M 394.00 353.00 
C 378.41 336.45 374.36 311.95 358.75 295.25 C 343.14 278.55 324.87 265.69 307.00 253.00
C 349.81 270.20 378.42 311.40 394.00 353.00
M 410.00 403.00 
C 406.37 387.72 394.13 375.37 381.92 366.08 C 369.71 356.80 355.53 347.78 344.25 337.75 C 332.97 327.71 315.97 317.41 315.00 303.00
C 321.97 316.35 335.34 326.44 347.25 335.75 C 359.15 345.07 373.53 353.71 384.25 364.75 C 394.97 375.79 412.09 387.48 410.00 403.00 Z"/>
</g>
<g fill="None" fill-opacity="0.0" stroke="#A1A2A1" stroke-opacity="0.21" stroke-width="0.3"><path d="
M 14.00 173.00 
C 17.18 170.28 19.98 166.91 23.00 164.00
C 19.74 166.68 16.99 170.01 14.00 173.00 Z"/>
</g>
<g fill="None" fill-opacity="0.0" stroke="#180200" stroke-opacity="1.00" stroke-width="0.3"><path d="
M 321.00 244.00 
C 310.33 237.61 300.21 229.92 291.75 220.25 C 283.30 210.58 272.89 204.57 262.75 197.25 C 252.60 189.94 245.43 177.49 240.00 168.00
C 242.69 187.27 260.60 200.24 275.25 211.75 C 289.90 223.26 301.66 240.85 321.00 244.00 Z"/>
</g>
<g fill="None" fill-opacity="0.0" stroke="#929291" stroke-opacity="0.26" stroke-width="0.3"><path d="
M 1.00 185.00 
C 3.62 182.96 5.65 180.35 8.00 178.00
C 5.58 180.07 2.75 182.17 1.00 185.00 Z"/>
</g>
<g fill="None" fill-opacity="0.0" stroke="#878A89" stroke-opacity="0.30" stroke-width="0.3"><path d="
M 293.00 194.00 
C 290.24 188.37 283.03 183.62 279.00 179.00
C 282.91 184.26 287.44 190.11 293.00 194.00 Z"/>
</g>
<g fill="None" fill-opacity="0.0" stroke="#000000" stroke-opacity="0.00" stroke-width="0.3"><path d="
M 0.00 491.00 
L 450.00 491.00
C 431.80 473.47 416.49 451.74 400.00 430.00
C 397.26 426.92 393.68 424.14 391.00 421.00
C 387.86 417.33 384.18 413.73 381.00 410.00
C 378.74 407.74 376.21 405.21 374.00 403.00
C 371.35 400.35 368.45 397.79 366.00 395.00
C 362.79 391.89 359.19 387.73 356.00 384.00
C 350.38 378.38 344.15 373.03 339.00 367.00
C 333.80 360.91 327.56 355.01 323.00 349.00
C 320.88 346.62 318.08 344.43 316.00 342.00
C 284.72 305.40 255.84 269.79 227.00 231.00
C 219.87 222.82 210.32 212.83 202.00 206.00
C 199.62 204.33 193.87 197.94 191.10 200.10 C 188.33 202.26 184.24 205.68 181.00 208.00
C 178.51 210.09 176.87 213.25 174.00 215.00
C 173.39 215.37 172.64 215.61 172.00 216.00
C 169.51 218.33 165.38 221.93 164.00 223.00
C 159.41 227.97 154.26 232.51 149.00 237.00
C 146.67 239.33 144.49 241.88 142.00 244.00
C 140.11 245.62 137.94 247.34 136.00 249.00
C 133.01 251.99 130.19 255.27 127.00 258.00
C 110.38 272.20 91.16 261.94 72.02 258.98 C 52.89 256.01 41.75 242.46 29.75 229.25 C 17.76 216.04 8.59 203.17 0.00 190.00
L 0.00 491.00 Z"/>
</g>
<g fill="None" fill-opacity="0.0" stroke="#8E8FAB" stroke-opacity="1.00" stroke-width="0.3"><path d="
M 26.00 215.00 
C 26.38 215.30 26.51 211.04 25.00 211.00
C 39.03 208.73 57.38 206.97 70.00 207.00
C 62.21 199.83 59.06 189.72 47.00 190.00 C 34.94 190.28 20.87 190.29 9.00 192.00
C 15.45 197.54 17.79 211.35 26.00 215.00 Z"/>
</g>
<g fill="None" fill-opacity="0.0" stroke="#200300" stroke-opacity="1.00" stroke-width="0.3"><path d="
M 293.00 286.00 
C 288.08 264.75 266.90 252.73 256.75 234.25 C 246.61 215.76 232.22 199.40 213.00 190.00
C 244.61 216.76 269.16 253.55 293.00 286.00 Z"/>
</g>
<g fill="None" fill-opacity="0.0" stroke="#545452" stroke-opacity="0.51" stroke-width="0.3"><path d="
M 306.00 209.00 
C 306.25 205.85 296.56 197.49 293.00 195.00
C 295.26 199.63 301.99 205.88 306.00 209.00 Z"/>
</g>
<g fill="None" fill-opacity="0.0" stroke="#A5A6BE" stroke-opacity="1.00" stroke-width="0.3"><path d="
M 26.00 215.00 
C 29.22 216.43 37.38 214.00 42.00 214.00
C 44.57 213.75 47.46 213.69 50.00 214.00
C 56.91 214.14 64.73 215.28 70.00 219.00
C 72.96 218.26 72.91 214.24 77.00 216.00
C 74.69 213.02 72.53 209.96 70.00 207.00
C 57.38 206.97 39.03 208.73 25.00 211.00
C 26.51 211.04 26.38 215.30 26.00 215.00 Z"/>
</g>
<g fill="None" fill-opacity="0.0" stroke="#818183" stroke-opacity="0.31" stroke-width="0.3"><path d="
M 227.00 231.00 
C 220.74 222.58 210.66 212.06 202.00 206.00
C 210.32 212.83 219.87 222.82 227.00 231.00 Z"/>
</g>
<g fill="None" fill-opacity="0.0" stroke="#888888" stroke-opacity="0.28" stroke-width="0.3"><path d="
M 174.00 215.00 
C 176.87 213.25 178.51 210.09 181.00 208.00
C 178.28 209.94 176.41 212.75 174.00 215.00 Z"/>
</g>
<g fill="None" fill-opacity="0.0" stroke="#474543" stroke-opacity="0.57" stroke-width="0.3"><path d="
M 318.00 221.00 
C 314.51 217.51 311.09 211.57 307.00 210.00
C 310.17 214.07 314.35 217.35 318.00 221.00 Z"/>
</g>
<g fill="None" fill-opacity="0.0" stroke="#585A67" stroke-opacity="1.00" stroke-width="0.3"><path d="
M 42.00 214.00 
C 44.66 214.00 47.34 213.95 50.00 214.00
C 47.46 213.69 44.57 213.75 42.00 214.00 Z"/>
</g>
<g fill="None" fill-opacity="0.0" stroke="#CECEE2" stroke-opacity="1.00" stroke-width="0.3"><path d="
M 70.00 219.00 
C 57.34 216.45 44.17 218.61 32.00 221.00
C 39.23 237.99 62.99 238.01 78.00 233.00
C 77.68 233.78 77.57 236.48 77.00 237.00
C 79.40 236.40 91.96 232.86 92.00 234.00
C 87.20 227.91 81.65 222.00 77.00 216.00
C 72.91 214.24 72.96 218.26 70.00 219.00 Z"/>
</g>
<g fill="None" fill-opacity="0.0" stroke="#5B5B5A" stroke-opacity="0.46" stroke-width="0.3"><path d="
M 164.00 223.00 
C 165.38 221.93 169.51 218.33 172.00 216.00
C 169.03 217.81 166.30 220.51 164.00 223.00 Z"/>
</g>
<g fill="None" fill-opacity="0.0" stroke="#949491" stroke-opacity="0.27" stroke-width="0.3"><path d="
M 335.00 238.00 
C 329.85 231.97 323.62 226.62 318.00 221.00
C 323.54 226.54 329.41 232.41 335.00 238.00 Z"/>
</g>
<g fill="None" fill-opacity="0.0" stroke="#A7A8C1" stroke-opacity="1.00" stroke-width="0.3"><path d="
M 77.00 237.00 
C 67.81 240.15 57.93 238.84 49.00 240.00
C 54.35 244.53 60.41 247.80 67.00 250.00
C 74.66 250.39 91.39 242.33 100.00 246.00
C 97.30 242.30 95.02 237.83 92.00 234.00
C 91.96 232.86 79.40 236.40 77.00 237.00 Z"/>
</g>
<g fill="None" fill-opacity="0.0" stroke="#908F90" stroke-opacity="0.26" stroke-width="0.3"><path d="
M 142.00 244.00 
C 144.49 241.88 146.67 239.33 149.00 237.00
C 146.51 239.12 144.33 241.67 142.00 244.00 Z"/>
</g>
<g fill="None" fill-opacity="0.0" stroke="#757471" stroke-opacity="0.35" stroke-width="0.3"><path d="
M 352.00 256.00 
C 347.85 251.68 343.27 247.27 339.00 243.00
C 342.93 247.60 347.44 251.94 352.00 256.00 Z"/>
</g>
<g fill="None" fill-opacity="0.0" stroke="#1E0400" stroke-opacity="1.00" stroke-width="0.3"><path d="
M 289.00 244.00 
C 284.17 252.15 294.87 263.73 300.70 271.30 C 306.52 278.87 316.22 284.85 323.25 291.75 C 330.28 298.65 338.30 305.63 345.00 312.00
C 332.69 284.62 294.64 275.47 289.00 244.00 Z"/>
</g>
<g fill="None" fill-opacity="0.0" stroke="#8C8EA8" stroke-opacity="1.00" stroke-width="0.3"><path d="
M 67.00 250.00 
C 80.37 253.85 93.90 257.03 108.00 258.00
C 106.69 253.38 102.70 249.71 100.00 246.00
C 91.39 242.33 74.66 250.39 67.00 250.00 Z"/>
</g>
<g fill="None" fill-opacity="0.0" stroke="#888788" stroke-opacity="0.25" stroke-width="0.3"><path d="
M 127.00 258.00 
C 130.19 255.27 133.01 251.99 136.00 249.00
C 132.81 251.73 129.99 255.01 127.00 258.00 Z"/>
</g>
<g fill="None" fill-opacity="0.0" stroke="#1F0400" stroke-opacity="1.00" stroke-width="0.3"><path d="
M 394.00 353.00 
C 378.42 311.40 349.81 270.20 307.00 253.00
C 324.87 265.69 343.14 278.55 358.75 295.25 C 374.36 311.95 378.41 336.45 394.00 353.00 Z"/>
</g>
<g fill="None" fill-opacity="0.0" stroke="#7F7D7A" stroke-opacity="0.31" stroke-width="0.3"><path d="
M 365.00 270.00 
C 362.29 266.83 358.87 264.04 356.00 261.00
C 358.65 264.29 362.00 267.00 365.00 270.00 Z"/>
</g>
<g fill="None" fill-opacity="0.0" stroke="#1D0300" stroke-opacity="1.00" stroke-width="0.3"><path d="
M 410.00 403.00 
C 412.09 387.48 394.97 375.79 384.25 364.75 C 373.53 353.71 359.15 345.07 347.25 335.75 C 335.34 326.44 321.97 316.35 315.00 303.00
C 315.97 317.41 332.97 327.71 344.25 337.75 C 355.53 347.78 369.71 356.80 381.92 366.08 C 394.13 375.37 406.37 387.72 410.00 403.00 Z"/>
</g>
<g fill="None" fill-opacity="0.0" stroke="#7C7977" stroke-opacity="0.31" stroke-width="0.3"><path d="
M 323.00 349.00 
C 320.99 346.35 318.35 344.35 316.00 342.00
C 318.08 344.43 320.88 346.62 323.00 349.00 Z"/>
</g>
<g fill="None" fill-opacity="0.0" stroke="#777D7D" stroke-opacity="0.30" stroke-width="0.3"><path d="
M 356.00 384.00 
C 350.85 377.97 344.62 372.62 339.00 367.00
C 344.15 373.03 350.38 378.38 356.00 384.00 Z"/>
</g>
<g fill="None" fill-opacity="0.0" stroke="#9C9E9D" stroke-opacity="0.17" stroke-width="0.3"><path d="
M 490.00 414.00 
C 481.80 405.80 473.25 397.25 465.00 389.00
C 472.45 397.72 481.23 406.51 490.00 414.00 Z"/>
</g>
<g fill="None" fill-opacity="0.0" stroke="#A3A3A4" stroke-opacity="0.11" stroke-width="0.3"><path d="
M 374.00 403.00 
C 371.44 400.44 368.65 397.57 366.00 395.00
C 368.45 397.79 371.35 400.35 374.00 403.00 Z"/>
</g>
<g fill="None" fill-opacity="0.0" stroke="#210400" stroke-opacity="1.00" stroke-width="0.3"><path d="
M 462.00 440.00 
C 462.25 438.10 462.42 438.10 464.00 439.00
C 458.27 422.51 449.05 404.31 431.00 399.00
C 445.81 409.64 454.72 424.07 462.00 440.00 Z"/>
</g>
<g fill="None" fill-opacity="0.0" stroke="#707070" stroke-opacity="0.31" stroke-width="0.3"><path d="
M 381.00 410.00 
C 378.88 407.51 376.33 405.33 374.00 403.00
C 376.21 405.21 378.74 407.74 381.00 410.00 Z"/>
</g>
<g fill="None" fill-opacity="0.0" stroke="#A8A7A8" stroke-opacity="0.20" stroke-width="0.3"><path d="
M 506.00 429.00 
C 503.34 424.84 498.75 421.21 495.00 418.00
C 498.30 421.30 503.14 425.33 506.00 429.00 Z"/>
</g>
<g fill="None" fill-opacity="0.0" stroke="#7B7C7C" stroke-opacity="0.26" stroke-width="0.3"><path d="
M 400.00 430.00 
C 397.44 426.62 394.00 424.00 391.00 421.00
C 393.68 424.14 397.26 426.92 400.00 430.00 Z"/>
</g>
<g fill="None" fill-opacity="0.0" stroke="#000000" stroke-opacity="0.00" stroke-width="0.3"><path d="
M 490.00 470.00 
C 486.66 473.91 483.00 477.84 479.00 481.00
C 473.50 485.34 467.23 488.65 461.00 491.00
L 508.00 491.00
L 508.00 441.00
C 504.34 451.59 497.56 461.15 490.00 470.00 Z"/>
</g>
<g fill="None" fill-opacity="0.0" stroke="#A2A2A2" stroke-opacity="0.21" stroke-width="0.3"><path d="
M 479.00 481.00 
C 483.00 477.84 486.66 473.91 490.00 470.00
C 486.52 473.48 482.65 477.63 479.00 481.00 Z"/>
</g>
<g fill="#000000" fill-opacity="0.00" stroke="None">
<path d="
M 0.00 186.00 
C 0.34 185.84 0.80 185.32 1.00 185.00
C 2.75 182.17 5.58 180.07 8.00 178.00
C 9.94 176.34 12.11 174.62 14.00 173.00
C 16.99 170.01 19.74 166.68 23.00 164.00
C 24.26 162.97 25.79 161.99 27.00 161.00
C 29.70 158.40 32.11 155.37 35.00 153.00
C 36.26 151.97 37.79 150.99 39.00 150.00
C 41.35 147.74 43.53 145.11 46.00 143.00
C 47.94 141.34 50.11 139.62 52.00 138.00
C 54.33 135.67 56.51 133.12 59.00 131.00
C 68.71 122.70 76.20 114.20 86.75 106.75 C 97.29 99.29 102.57 87.40 109.00 79.00
C 113.47 73.17 119.49 67.71 125.00 63.00
C 138.17 51.74 151.74 46.75 167.69 41.69 C 183.65 36.64 197.03 28.67 213.00 24.00
C 214.14 23.52 215.65 22.54 217.00 22.00
C 243.48 11.43 268.50 1.00 299.00 1.00
C 298.93 0.99 299.00 0.00 299.00 0.00
L 0.00 0.00
L 0.00 186.00 Z"/>
</g>
<g fill="#989898" fill-opacity="0.11" stroke="None">
<path d="
M 299.00 1.00 
C 301.33 1.00 303.67 1.00 306.00 1.00
C 306.07 0.99 306.00 0.00 306.00 0.00
L 299.00 0.00
C 299.00 0.00 298.93 0.99 299.00 1.00 Z"/>
</g>
<g fill="#636265" fill-opacity="0.55" stroke="None">
<path d="
M 306.00 1.00 
C 311.26 1.00 316.76 1.47 322.00 1.00
C 321.93 0.99 322.00 0.00 322.00 0.00
L 306.00 0.00
C 306.00 0.00 306.07 0.99 306.00 1.00 Z"/>
</g>
<g fill="#000000" fill-opacity="0.00" stroke="None">
<path d="
M 322.00 1.00 
C 330.08 2.10 336.44 8.42 339.00 16.00
C 340.11 19.29 339.70 21.83 339.00 25.00
C 336.04 38.37 324.81 51.96 317.70 64.70 C 310.58 77.43 303.16 89.82 295.00 103.00
C 294.09 104.47 292.83 105.76 292.00 107.00
C 286.79 116.66 280.66 124.59 271.25 131.25 C 261.84 137.91 251.25 144.47 259.25 153.75 C 267.25 163.03 271.70 169.18 279.00 179.00
C 283.03 183.62 290.24 188.37 293.00 194.00
C 293.20 194.40 293.00 195.00 293.00 195.00
C 296.56 197.49 306.25 205.85 306.00 209.00
C 306.27 209.21 306.65 209.87 307.00 210.00
C 311.09 211.57 314.51 217.51 318.00 221.00
C 323.62 226.62 329.85 231.97 335.00 238.00
C 336.35 239.58 337.69 241.47 339.00 243.00
C 343.27 247.27 347.85 251.68 352.00 256.00
C 353.81 257.61 354.67 259.35 356.00 261.00
C 358.87 264.04 362.29 266.83 365.00 270.00
C 398.34 309.01 430.97 349.18 465.00 389.00
C 473.25 397.25 481.80 405.80 490.00 414.00
C 491.58 415.35 493.47 416.69 495.00 418.00
C 498.75 421.21 503.34 424.84 506.00 429.00
C 506.67 430.05 506.75 431.55 508.00 432.00
L 508.00 0.00
L 322.00 0.00
C 322.00 0.00 321.93 0.99 322.00 1.00 Z"/>
</g>
<g fill="#050405" fill-opacity="0.97" stroke="None">
<path d="
M 217.00 22.00 
C 215.59 22.77 214.75 23.49 213.00 24.00
C 197.03 28.67 183.65 36.64 167.69 41.69 C 151.74 46.75 138.17 51.74 125.00 63.00
C 119.83 68.17 113.83 73.65 109.00 79.00
C 102.57 87.40 97.29 99.29 86.75 106.75 C 76.20 114.20 68.71 122.70 59.00 131.00
C 56.67 133.33 54.49 135.88 52.00 138.00
C 50.11 139.62 47.94 141.34 46.00 143.00
C 43.66 145.34 41.55 147.91 39.00 150.00
C 37.79 150.99 36.26 151.97 35.00 153.00
C 32.30 155.60 29.89 158.63 27.00 161.00
C 25.79 161.99 24.26 162.97 23.00 164.00
C 19.98 166.91 17.18 170.28 14.00 173.00
C 12.11 174.62 9.94 176.34 8.00 178.00
C 5.65 180.35 3.62 182.96 1.00 185.00
C 0.80 185.32 0.34 185.84 0.00 186.00
L 0.00 190.00
C 8.59 203.17 17.76 216.04 29.75 229.25 C 41.75 242.46 52.89 256.01 72.02 258.98 C 91.16 261.94 110.38 272.20 127.00 258.00
C 129.99 255.01 132.81 251.73 136.00 249.00
C 137.94 247.34 140.11 245.62 142.00 244.00
C 144.33 241.67 146.51 239.12 149.00 237.00
C 154.26 232.51 159.41 227.97 164.00 223.00
C 166.30 220.51 169.03 217.81 172.00 216.00
C 172.64 215.61 173.39 215.37 174.00 215.00
C 176.41 212.75 178.28 209.94 181.00 208.00
C 184.24 205.68 188.33 202.26 191.10 200.10 C 193.87 197.94 199.62 204.33 202.00 206.00
C 210.66 212.06 220.74 222.58 227.00 231.00
C 255.84 269.79 284.72 305.40 316.00 342.00
C 318.35 344.35 320.99 346.35 323.00 349.00
C 327.56 355.01 333.80 360.91 339.00 367.00
C 344.62 372.62 350.85 377.97 356.00 384.00
C 359.19 387.73 362.79 391.89 366.00 395.00
C 368.65 397.57 371.44 400.44 374.00 403.00
C 376.33 405.33 378.88 407.51 381.00 410.00
C 384.18 413.73 387.86 417.33 391.00 421.00
C 394.00 424.00 397.44 426.62 400.00 430.00
C 416.49 451.74 431.80 473.47 450.00 491.00
L 461.00 491.00
C 467.23 488.65 473.50 485.34 479.00 481.00
C 482.65 477.63 486.52 473.48 490.00 470.00
C 497.56 461.15 504.34 451.59 508.00 441.00
L 508.00 432.00
C 506.75 431.55 506.67 430.05 506.00 429.00
C 503.14 425.33 498.30 421.30 495.00 418.00
C 493.47 416.69 491.58 415.35 490.00 414.00
C 481.23 406.51 472.45 397.72 465.00 389.00
C 430.97 349.18 398.34 309.01 365.00 270.00
C 362.00 267.00 358.65 264.29 356.00 261.00
C 354.67 259.35 353.81 257.61 352.00 256.00
C 347.44 251.94 342.93 247.60 339.00 243.00
C 337.69 241.47 336.35 239.58 335.00 238.00
C 329.41 232.41 323.54 226.54 318.00 221.00
C 314.35 217.35 310.17 214.07 307.00 210.00
C 306.65 209.87 306.27 209.21 306.00 209.00
C 301.99 205.88 295.26 199.63 293.00 195.00
C 293.00 195.00 293.20 194.40 293.00 194.00
C 287.44 190.11 282.91 184.26 279.00 179.00
C 271.70 169.18 267.25 163.03 259.25 153.75 C 251.25 144.47 261.84 137.91 271.25 131.25 C 280.66 124.59 286.79 116.66 292.00 107.00
C 292.92 105.30 293.96 104.36 295.00 103.00
C 303.16 89.82 310.58 77.43 317.70 64.70 C 324.81 51.96 336.04 38.37 339.00 25.00
C 339.27 22.39 339.50 18.57 339.00 16.00
C 336.44 8.42 330.08 2.10 322.00 1.00
C 316.76 1.47 311.26 1.00 306.00 1.00
C 303.67 1.00 301.33 1.00 299.00 1.00
C 268.50 1.00 243.48 11.43 217.00 22.00
M 300.00 8.00 
C 259.69 20.41 221.79 46.99 178.00 43.00
C 217.58 29.23 257.11 6.92 300.00 8.00
M 117.00 255.00 
C 96.32 234.00 77.50 210.84 63.00 186.00
C 74.70 176.31 85.48 166.10 96.75 155.75 C 108.03 145.40 120.70 136.56 131.75 125.75 C 142.79 114.94 154.99 106.76 166.23 96.23 C 177.47 85.70 189.84 76.55 201.25 66.25 C 212.66 55.95 225.76 44.88 239.69 39.69 C 253.63 34.51 272.35 25.95 285.02 21.02 C 297.69 16.10 322.86 0.38 329.97 17.03 C 337.09 33.67 315.16 46.47 311.23 61.23 C 307.29 75.99 292.41 86.37 287.25 101.25 C 282.08 116.12 266.06 123.76 254.77 133.77 C 243.48 143.78 231.70 154.29 220.25 164.25 C 208.80 174.21 197.30 183.78 185.92 193.92 C 174.54 204.05 163.52 215.20 151.75 224.75 C 139.98 234.30 128.24 245.05 117.00 255.00
M 211.00 47.00 
C 199.87 58.85 187.09 68.02 175.25 79.25 C 163.40 90.47 151.78 100.75 139.25 111.25 C 126.73 121.75 115.59 131.97 102.75 142.75 C 89.91 153.54 79.69 162.90 66.75 174.75 C 53.82 186.60 28.30 187.41 11.00 183.00
C 40.26 155.40 72.10 130.09 101.00 102.00
C 113.89 123.35 137.02 109.10 149.75 96.75 C 162.49 84.41 185.39 65.98 165.00 51.00
C 179.42 47.69 195.38 46.89 211.00 47.00
M 158.00 52.00 
C 150.28 73.55 128.16 92.85 106.00 98.00
C 112.87 76.08 135.99 56.93 158.00 52.00
M 111.00 103.00 
C 132.05 95.51 153.65 78.52 162.00 57.00
C 170.21 59.81 166.60 70.90 162.01 75.01 C 157.42 79.12 153.69 86.35 148.75 90.75 C 143.82 95.15 135.33 97.32 129.78 100.78 C 124.23 104.23 115.89 111.79 111.00 103.00
M 464.00 439.00 
C 462.42 438.10 462.25 438.10 462.00 440.00
C 466.52 449.88 484.39 464.83 473.00 473.00
C 455.90 458.10 441.70 441.57 430.00 423.00
C 427.08 432.63 436.80 436.45 441.75 444.25 C 446.70 452.05 449.00 457.38 457.75 464.25 C 466.50 471.12 458.70 488.22 449.75 480.25 C 440.81 472.27 440.07 467.69 434.25 459.75 C 428.42 451.82 425.45 446.54 419.25 439.75 C 413.05 432.96 409.07 426.51 402.75 420.25 C 396.44 413.99 390.75 408.47 384.75 402.25 C 378.75 396.03 373.90 389.46 367.25 383.75 C 360.60 378.04 356.12 371.07 349.75 365.25 C 343.38 359.43 338.66 353.36 332.75 347.25 C 326.84 341.14 321.35 334.62 315.75 328.25 C 310.15 321.89 304.64 315.29 299.25 308.75 C 293.85 302.22 288.73 295.24 283.25 288.75 C 277.76 282.27 274.33 274.87 268.25 268.75 C 262.17 262.63 258.17 254.78 252.75 248.25 C 247.33 241.73 241.97 235.00 236.23 228.77 C 230.49 222.54 225.00 216.03 218.75 210.25 C 212.50 204.47 206.20 198.86 200.00 193.00
C 214.08 177.65 230.13 163.94 247.00 153.00
C 252.69 160.36 258.57 167.43 264.25 174.75 C 269.93 182.07 276.83 189.11 282.75 196.25 C 288.68 203.38 296.44 208.57 302.25 215.75 C 308.05 222.93 315.20 229.50 321.75 236.25 C 328.30 242.99 334.58 250.08 341.25 256.75 C 347.92 263.43 353.27 270.42 359.75 277.25 C 366.24 284.08 371.86 291.81 378.30 298.70 C 384.75 305.59 389.93 312.72 396.30 319.70 C 402.67 326.67 407.60 335.06 413.92 342.08 C 420.23 349.11 426.29 356.55 432.25 363.75 C 438.21 370.94 443.53 378.21 449.92 385.08 C 456.31 391.95 461.73 399.64 469.25 405.75 C 476.77 411.86 480.05 420.21 489.25 424.75 C 498.44 429.30 501.27 447.55 491.25 438.75 C 481.22 429.95 478.24 427.90 467.00 423.00
C 470.98 431.01 480.15 431.95 486.25 438.75 C 492.34 445.56 490.76 462.55 480.92 457.08 C 471.09 451.61 470.69 446.61 464.00 439.00
M 70.00 207.00 
C 72.53 209.96 74.69 213.02 77.00 216.00
C 81.65 222.00 87.20 227.91 92.00 234.00
C 95.02 237.83 97.30 242.30 100.00 246.00
C 102.70 249.71 106.69 253.38 108.00 258.00
C 93.90 257.03 80.37 253.85 67.00 250.00
C 60.41 247.80 54.35 244.53 49.00 240.00
C 57.93 238.84 67.81 240.15 77.00 237.00
C 77.57 236.48 77.68 233.78 78.00 233.00
C 62.99 238.01 39.23 237.99 32.00 221.00
C 44.17 218.61 57.34 216.45 70.00 219.00
C 64.73 215.28 56.91 214.14 50.00 214.00
C 47.34 213.95 44.66 214.00 42.00 214.00
C 37.38 214.00 29.22 216.43 26.00 215.00
C 17.79 211.35 15.45 197.54 9.00 192.00
C 20.87 190.29 34.94 190.28 47.00 190.00 C 59.06 189.72 62.21 199.83 70.00 207.00 Z"/>
</g>
<g fill="#333549" fill-opacity="1.00" stroke="None">
<path d="
M 300.00 8.00 
C 257.11 6.92 217.58 29.23 178.00 43.00
C 221.79 46.99 259.69 20.41 300.00 8.00 Z"/>
</g>
<g fill="#34364D" fill-opacity="1.00" stroke="None">
<path d="
M 117.00 255.00 
C 128.24 245.05 139.98 234.30 151.75 224.75 C 163.52 215.20 174.54 204.05 185.92 193.92 C 197.30 183.78 208.80 174.21 220.25 164.25 C 231.70 154.29 243.48 143.78 254.77 133.77 C 266.06 123.76 282.08 116.12 287.25 101.25 C 292.41 86.37 307.29 75.99 311.23 61.23 C 315.16 46.47 337.09 33.67 329.97 17.03 C 322.86 0.38 297.69 16.10 285.02 21.02 C 272.35 25.95 253.63 34.51 239.69 39.69 C 225.76 44.88 212.66 55.95 201.25 66.25 C 189.84 76.55 177.47 85.70 166.23 96.23 C 154.99 106.76 142.79 114.94 131.75 125.75 C 120.70 136.56 108.03 145.40 96.75 155.75 C 85.48 166.10 74.70 176.31 63.00 186.00
C 77.50 210.84 96.32 234.00 117.00 255.00 Z"/>
</g>
<g fill="#868686" fill-opacity="0.30" stroke="None">
<path d="
M 339.00 25.00 
C 339.70 21.83 340.11 19.29 339.00 16.00
C 339.50 18.57 339.27 22.39 339.00 25.00 Z"/>
</g>
<g fill="#919192" fill-opacity="0.28" stroke="None">
<path d="
M 213.00 24.00 
C 214.75 23.49 215.59 22.77 217.00 22.00
C 215.65 22.54 214.14 23.52 213.00 24.00 Z"/>
</g>
<g fill="#34354B" fill-opacity="1.00" stroke="None">
<path d="
M 211.00 47.00 
C 195.38 46.89 179.42 47.69 165.00 51.00
C 185.39 65.98 162.49 84.41 149.75 96.75 C 137.02 109.10 113.89 123.35 101.00 102.00
C 72.10 130.09 40.26 155.40 11.00 183.00
C 28.30 187.41 53.82 186.60 66.75 174.75 C 79.69 162.90 89.91 153.54 102.75 142.75 C 115.59 131.97 126.73 121.75 139.25 111.25 C 151.78 100.75 163.40 90.47 175.25 79.25 C 187.09 68.02 199.87 58.85 211.00 47.00 Z"/>
</g>
<g fill="#6D320E" fill-opacity="1.00" stroke="None">
<path d="
M 158.00 52.00 
C 135.99 56.93 112.87 76.08 106.00 98.00
C 128.16 92.85 150.28 73.55 158.00 52.00
M 149.00 61.00 
C 142.24 73.06 127.72 88.79 115.00 88.00
C 120.44 76.44 133.17 69.36 142.00 61.00
C 144.32 62.57 146.18 63.25 149.00 61.00 Z"/>
</g>
<g fill="#73330B" fill-opacity="1.00" stroke="None">
<path d="
M 111.00 103.00 
C 115.89 111.79 124.23 104.23 129.78 100.78 C 135.33 97.32 143.82 95.15 148.75 90.75 C 153.69 86.35 157.42 79.12 162.01 75.01 C 166.60 70.90 170.21 59.81 162.00 57.00
C 153.65 78.52 132.05 95.51 111.00 103.00 Z"/>
</g>
<g fill="#080201" fill-opacity="1.00" stroke="None">
<path d="
M 149.00 61.00 
C 146.18 63.25 144.32 62.57 142.00 61.00
C 133.17 69.36 120.44 76.44 115.00 88.00
C 127.72 88.79 142.24 73.06 149.00 61.00 Z"/>
</g>
<g fill="#777779" fill-opacity="0.33" stroke="None">
<path d="
M 109.00 79.00 
C 113.83 73.65 119.83 68.17 125.00 63.00
C 119.49 67.71 113.47 73.17 109.00 79.00 Z"/>
</g>
<g fill="#878787" fill-opacity="0.28" stroke="None">
<path d="
M 292.00 107.00 
C 292.83 105.76 294.09 104.47 295.00 103.00
C 293.96 104.36 292.92 105.30 292.00 107.00 Z"/>
</g>
<g fill="#979796" fill-opacity="0.20" stroke="None">
<path d="
M 52.00 138.00 
C 54.49 135.88 56.67 133.33 59.00 131.00
C 56.51 133.12 54.33 135.67 52.00 138.00 Z"/>
</g>
<g fill="#949493" fill-opacity="0.27" stroke="None">
<path d="
M 39.00 150.00 
C 41.55 147.91 43.66 145.34 46.00 143.00
C 43.53 145.11 41.35 147.74 39.00 150.00 Z"/>
</g>
<g fill="#7B7B7D" fill-opacity="0.36" stroke="None">
<path d="
M 27.00 161.00 
C 29.89 158.63 32.30 155.60 35.00 153.00
C 32.11 155.37 29.70 158.40 27.00 161.00 Z"/>
</g>
<g fill="#7E3505" fill-opacity="1.00" stroke="None">
<path d="
M 462.00 440.00 
C 454.72 424.07 445.81 409.64 431.00 399.00
C 449.05 404.31 458.27 422.51 464.00 439.00
C 470.69 446.61 471.09 451.61 480.92 457.08 C 490.76 462.55 492.34 445.56 486.25 438.75 C 480.15 431.95 470.98 431.01 467.00 423.00
C 478.24 427.90 481.22 429.95 491.25 438.75 C 501.27 447.55 498.44 429.30 489.25 424.75 C 480.05 420.21 476.77 411.86 469.25 405.75 C 461.73 399.64 456.31 391.95 449.92 385.08 C 443.53 378.21 438.21 370.94 432.25 363.75 C 426.29 356.55 420.23 349.11 413.92 342.08 C 407.60 335.06 402.67 326.67 396.30 319.70 C 389.93 312.72 384.75 305.59 378.30 298.70 C 371.86 291.81 366.24 284.08 359.75 277.25 C 353.27 270.42 347.92 263.43 341.25 256.75 C 334.58 250.08 328.30 242.99 321.75 236.25 C 315.20 229.50 308.05 222.93 302.25 215.75 C 296.44 208.57 288.68 203.38 282.75 196.25 C 276.83 189.11 269.93 182.07 264.25 174.75 C 258.57 167.43 252.69 160.36 247.00 153.00
C 230.13 163.94 214.08 177.65 200.00 193.00
C 206.20 198.86 212.50 204.47 218.75 210.25 C 225.00 216.03 230.49 222.54 236.23 228.77 C 241.97 235.00 247.33 241.73 252.75 248.25 C 258.17 254.78 262.17 262.63 268.25 268.75 C 274.33 274.87 277.76 282.27 283.25 288.75 C 288.73 295.24 293.85 302.22 299.25 308.75 C 304.64 315.29 310.15 321.89 315.75 328.25 C 321.35 334.62 326.84 341.14 332.75 347.25 C 338.66 353.36 343.38 359.43 349.75 365.25 C 356.12 371.07 360.60 378.04 367.25 383.75 C 373.90 389.46 378.75 396.03 384.75 402.25 C 390.75 408.47 396.44 413.99 402.75 420.25 C 409.07 426.51 413.05 432.96 419.25 439.75 C 425.45 446.54 428.42 451.82 434.25 459.75 C 440.07 467.69 440.81 472.27 449.75 480.25 C 458.70 488.22 466.50 471.12 457.75 464.25 C 449.00 457.38 446.70 452.05 441.75 444.25 C 436.80 436.45 427.08 432.63 430.00 423.00
C 441.70 441.57 455.90 458.10 473.00 473.00
C 484.39 464.83 466.52 449.88 462.00 440.00
M 321.00 244.00 
C 301.66 240.85 289.90 223.26 275.25 211.75 C 260.60 200.24 242.69 187.27 240.00 168.00
C 245.43 177.49 252.60 189.94 262.75 197.25 C 272.89 204.57 283.30 210.58 291.75 220.25 C 300.21 229.92 310.33 237.61 321.00 244.00
M 293.00 286.00 
C 269.16 253.55 244.61 216.76 213.00 190.00
C 232.22 199.40 246.61 215.76 256.75 234.25 C 266.90 252.73 288.08 264.75 293.00 286.00
M 289.00 244.00 
C 294.64 275.47 332.69 284.62 345.00 312.00
C 338.30 305.63 330.28 298.65 323.25 291.75 C 316.22 284.85 306.52 278.87 300.70 271.30 C 294.87 263.73 284.17 252.15 289.00 244.00
M 394.00 353.00 
C 378.41 336.45 374.36 311.95 358.75 295.25 C 343.14 278.55 324.87 265.69 307.00 253.00
C 349.81 270.20 378.42 311.40 394.00 353.00
M 410.00 403.00 
C 406.37 387.72 394.13 375.37 381.92 366.08 C 369.71 356.80 355.53 347.78 344.25 337.75 C 332.97 327.71 315.97 317.41 315.00 303.00
C 321.97 316.35 335.34 326.44 347.25 335.75 C 359.15 345.07 373.53 353.71 384.25 364.75 C 394.97 375.79 412.09 387.48 410.00 403.00 Z"/>
</g>
<g fill="#A1A2A1" fill-opacity="0.21" stroke="None">
<path d="
M 14.00 173.00 
C 17.18 170.28 19.98 166.91 23.00 164.00
C 19.74 166.68 16.99 170.01 14.00 173.00 Z"/>
</g>
<g fill="#180200" fill-opacity="1.00" stroke="None">
<path d="
M 321.00 244.00 
C 310.33 237.61 300.21 229.92 291.75 220.25 C 283.30 210.58 272.89 204.57 262.75 197.25 C 252.60 189.94 245.43 177.49 240.00 168.00
C 242.69 187.27 260.60 200.24 275.25 211.75 C 289.90 223.26 301.66 240.85 321.00 244.00 Z"/>
</g>
<g fill="#929291" fill-opacity="0.26" stroke="None">
<path d="
M 1.00 185.00 
C 3.62 182.96 5.65 180.35 8.00 178.00
C 5.58 180.07 2.75 182.17 1.00 185.00 Z"/>
</g>
<g fill="#878A89" fill-opacity="0.30" stroke="None">
<path d="
M 293.00 194.00 
C 290.24 188.37 283.03 183.62 279.00 179.00
C 282.91 184.26 287.44 190.11 293.00 194.00 Z"/>
</g>
<g fill="#000000" fill-opacity="0.00" stroke="None">
<path d="
M 0.00 491.00 
L 450.00 491.00
C 431.80 473.47 416.49 451.74 400.00 430.00
C 397.26 426.92 393.68 424.14 391.00 421.00
C 387.86 417.33 384.18 413.73 381.00 410.00
C 378.74 407.74 376.21 405.21 374.00 403.00
C 371.35 400.35 368.45 397.79 366.00 395.00
C 362.79 391.89 359.19 387.73 356.00 384.00
C 350.38 378.38 344.15 373.03 339.00 367.00
C 333.80 360.91 327.56 355.01 323.00 349.00
C 320.88 346.62 318.08 344.43 316.00 342.00
C 284.72 305.40 255.84 269.79 227.00 231.00
C 219.87 222.82 210.32 212.83 202.00 206.00
C 199.62 204.33 193.87 197.94 191.10 200.10 C 188.33 202.26 184.24 205.68 181.00 208.00
C 178.51 210.09 176.87 213.25 174.00 215.00
C 173.39 215.37 172.64 215.61 172.00 216.00
C 169.51 218.33 165.38 221.93 164.00 223.00
C 159.41 227.97 154.26 232.51 149.00 237.00
C 146.67 239.33 144.49 241.88 142.00 244.00
C 140.11 245.62 137.94 247.34 136.00 249.00
C 133.01 251.99 130.19 255.27 127.00 258.00
C 110.38 272.20 91.16 261.94 72.02 258.98 C 52.89 256.01 41.75 242.46 29.75 229.25 C 17.76 216.04 8.59 203.17 0.00 190.00
L 0.00 491.00 Z"/>
</g>
<g fill="#8E8FAB" fill-opacity="1.00" stroke="None">
<path d="
M 26.00 215.00 
C 26.38 215.30 26.51 211.04 25.00 211.00
C 39.03 208.73 57.38 206.97 70.00 207.00
C 62.21 199.83 59.06 189.72 47.00 190.00 C 34.94 190.28 20.87 190.29 9.00 192.00
C 15.45 197.54 17.79 211.35 26.00 215.00 Z"/>
</g>
<g fill="#200300" fill-opacity="1.00" stroke="None">
<path d="
M 293.00 286.00 
C 288.08 264.75 266.90 252.73 256.75 234.25 C 246.61 215.76 232.22 199.40 213.00 190.00
C 244.61 216.76 269.16 253.55 293.00 286.00 Z"/>
</g>
<g fill="#545452" fill-opacity="0.51" stroke="None">
<path d="
M 306.00 209.00 
C 306.25 205.85 296.56 197.49 293.00 195.00
C 295.26 199.63 301.99 205.88 306.00 209.00 Z"/>
</g>
<g fill="#A5A6BE" fill-opacity="1.00" stroke="None">
<path d="
M 26.00 215.00 
C 29.22 216.43 37.38 214.00 42.00 214.00
C 44.57 213.75 47.46 213.69 50.00 214.00
C 56.91 214.14 64.73 215.28 70.00 219.00
C 72.96 218.26 72.91 214.24 77.00 216.00
C 74.69 213.02 72.53 209.96 70.00 207.00
C 57.38 206.97 39.03 208.73 25.00 211.00
C 26.51 211.04 26.38 215.30 26.00 215.00 Z"/>
</g>
<g fill="#818183" fill-opacity="0.31" stroke="None">
<path d="
M 227.00 231.00 
C 220.74 222.58 210.66 212.06 202.00 206.00
C 210.32 212.83 219.87 222.82 227.00 231.00 Z"/>
</g>
<g fill="#888888" fill-opacity="0.28" stroke="None">
<path d="
M 174.00 215.00 
C 176.87 213.25 178.51 210.09 181.00 208.00
C 178.28 209.94 176.41 212.75 174.00 215.00 Z"/>
</g>
<g fill="#474543" fill-opacity="0.57" stroke="None">
<path d="
M 318.00 221.00 
C 314.51 217.51 311.09 211.57 307.00 210.00
C 310.17 214.07 314.35 217.35 318.00 221.00 Z"/>
</g>
<g fill="#585A67" fill-opacity="1.00" stroke="None">
<path d="
M 42.00 214.00 
C 44.66 214.00 47.34 213.95 50.00 214.00
C 47.46 213.69 44.57 213.75 42.00 214.00 Z"/>
</g>
<g fill="#CECEE2" fill-opacity="1.00" stroke="None">
<path d="
M 70.00 219.00 
C 57.34 216.45 44.17 218.61 32.00 221.00
C 39.23 237.99 62.99 238.01 78.00 233.00
C 77.68 233.78 77.57 236.48 77.00 237.00
C 79.40 236.40 91.96 232.86 92.00 234.00
C 87.20 227.91 81.65 222.00 77.00 216.00
C 72.91 214.24 72.96 218.26 70.00 219.00 Z"/>
</g>
<g fill="#5B5B5A" fill-opacity="0.46" stroke="None">
<path d="
M 164.00 223.00 
C 165.38 221.93 169.51 218.33 172.00 216.00
C 169.03 217.81 166.30 220.51 164.00 223.00 Z"/>
</g>
<g fill="#949491" fill-opacity="0.27" stroke="None">
<path d="
M 335.00 238.00 
C 329.85 231.97 323.62 226.62 318.00 221.00
C 323.54 226.54 329.41 232.41 335.00 238.00 Z"/>
</g>
<g fill="#A7A8C1" fill-opacity="1.00" stroke="None">
<path d="
M 77.00 237.00 
C 67.81 240.15 57.93 238.84 49.00 240.00
C 54.35 244.53 60.41 247.80 67.00 250.00
C 74.66 250.39 91.39 242.33 100.00 246.00
C 97.30 242.30 95.02 237.83 92.00 234.00
C 91.96 232.86 79.40 236.40 77.00 237.00 Z"/>
</g>
<g fill="#908F90" fill-opacity="0.26" stroke="None">
<path d="
M 142.00 244.00 
C 144.49 241.88 146.67 239.33 149.00 237.00
C 146.51 239.12 144.33 241.67 142.00 244.00 Z"/>
</g>
<g fill="#757471" fill-opacity="0.35" stroke="None">
<path d="
M 352.00 256.00 
C 347.85 251.68 343.27 247.27 339.00 243.00
C 342.93 247.60 347.44 251.94 352.00 256.00 Z"/>
</g>
<g fill="#1E0400" fill-opacity="1.00" stroke="None">
<path d="
M 289.00 244.00 
C 284.17 252.15 294.87 263.73 300.70 271.30 C 306.52 278.87 316.22 284.85 323.25 291.75 C 330.28 298.65 338.30 305.63 345.00 312.00
C 332.69 284.62 294.64 275.47 289.00 244.00 Z"/>
</g>
<g fill="#8C8EA8" fill-opacity="1.00" stroke="None">
<path d="
M 67.00 250.00 
C 80.37 253.85 93.90 257.03 108.00 258.00
C 106.69 253.38 102.70 249.71 100.00 246.00
C 91.39 242.33 74.66 250.39 67.00 250.00 Z"/>
</g>
<g fill="#888788" fill-opacity="0.25" stroke="None">
<path d="
M 127.00 258.00 
C 130.19 255.27 133.01 251.99 136.00 249.00
C 132.81 251.73 129.99 255.01 127.00 258.00 Z"/>
</g>
<g fill="#1F0400" fill-opacity="1.00" stroke="None">
<path d="
M 394.00 353.00 
C 378.42 311.40 349.81 270.20 307.00 253.00
C 324.87 265.69 343.14 278.55 358.75 295.25 C 374.36 311.95 378.41 336.45 394.00 353.00 Z"/>
</g>
<g fill="#7F7D7A" fill-opacity="0.31" stroke="None">
<path d="
M 365.00 270.00 
C 362.29 266.83 358.87 264.04 356.00 261.00
C 358.65 264.29 362.00 267.00 365.00 270.00 Z"/>
</g>
<g fill="#1D0300" fill-opacity="1.00" stroke="None">
<path d="
M 410.00 403.00 
C 412.09 387.48 394.97 375.79 384.25 364.75 C 373.53 353.71 359.15 345.07 347.25 335.75 C 335.34 326.44 321.97 316.35 315.00 303.00
C 315.97 317.41 332.97 327.71 344.25 337.75 C 355.53 347.78 369.71 356.80 381.92 366.08 C 394.13 375.37 406.37 387.72 410.00 403.00 Z"/>
</g>
<g fill="#7C7977" fill-opacity="0.31" stroke="None">
<path d="
M 323.00 349.00 
C 320.99 346.35 318.35 344.35 316.00 342.00
C 318.08 344.43 320.88 346.62 323.00 349.00 Z"/>
</g>
<g fill="#777D7D" fill-opacity="0.30" stroke="None">
<path d="
M 356.00 384.00 
C 350.85 377.97 344.62 372.62 339.00 367.00
C 344.15 373.03 350.38 378.38 356.00 384.00 Z"/>
</g>
<g fill="#9C9E9D" fill-opacity="0.17" stroke="None">
<path d="
M 490.00 414.00 
C 481.80 405.80 473.25 397.25 465.00 389.00
C 472.45 397.72 481.23 406.51 490.00 414.00 Z"/>
</g>
<g fill="#A3A3A4" fill-opacity="0.11" stroke="None">
<path d="
M 374.00 403.00 
C 371.44 400.44 368.65 397.57 366.00 395.00
C 368.45 397.79 371.35 400.35 374.00 403.00 Z"/>
</g>
<g fill="#210400" fill-opacity="1.00" stroke="None">
<path d="
M 462.00 440.00 
C 462.25 438.10 462.42 438.10 464.00 439.00
C 458.27 422.51 449.05 404.31 431.00 399.00
C 445.81 409.64 454.72 424.07 462.00 440.00 Z"/>
</g>
<g fill="#707070" fill-opacity="0.31" stroke="None">
<path d="
M 381.00 410.00 
C 378.88 407.51 376.33 405.33 374.00 403.00
C 376.21 405.21 378.74 407.74 381.00 410.00 Z"/>
</g>
<g fill="#A8A7A8" fill-opacity="0.20" stroke="None">
<path d="
M 506.00 429.00 
C 503.34 424.84 498.75 421.21 495.00 418.00
C 498.30 421.30 503.14 425.33 506.00 429.00 Z"/>
</g>
<g fill="#7B7C7C" fill-opacity="0.26" stroke="None">
<path d="
M 400.00 430.00 
C 397.44 426.62 394.00 424.00 391.00 421.00
C 393.68 424.14 397.26 426.92 400.00 430.00 Z"/>
</g>
<g fill="#000000" fill-opacity="0.00" stroke="None">
<path d="
M 490.00 470.00 
C 486.66 473.91 483.00 477.84 479.00 481.00
C 473.50 485.34 467.23 488.65 461.00 491.00
L 508.00 491.00
L 508.00 441.00
C 504.34 451.59 497.56 461.15 490.00 470.00 Z"/>
</g>
<g fill="#A2A2A2" fill-opacity="0.21" stroke="None">
<path d="
M 479.00 481.00 
C 483.00 477.84 486.66 473.91 490.00 470.00
C 486.52 473.48 482.65 477.63 479.00 481.00 Z"/>
</g>
</svg>